<!-- Generated by IcoMoon.io -->
<svg version="1.1" xmlns="http://www.w3.org/2000/svg" width="32" height="32" viewBox="0 0 32 32">
<path fill="#44423e" d="M32 25.143c0 1.045-0.847 1.892-1.892 1.892h-28.217c-1.045 0-1.892-0.847-1.892-1.892v-18.285c0-1.045 0.847-1.892 1.892-1.892h28.217c1.045 0 1.892 0.847 1.892 1.892v18.285z"></path>
<path fill="#e7e8e3" d="M29.189 16.027c0 4.226-3.426 7.652-7.652 7.652s-7.652-3.426-7.652-7.652c0-4.226 3.426-7.652 7.652-7.652s7.652 3.426 7.652 7.652z"></path>
<path fill="#202121" opacity="0.15" d="M1.345 25.143v-18.285c0-1.045 0.847-1.892 1.892-1.892h-1.345c-1.045 0-1.891 0.847-1.891 1.892v18.285c0 1.045 0.847 1.892 1.892 1.892h1.345c-1.045 0-1.892-0.847-1.892-1.892z"></path>
<path fill="#f7931a" d="M21.438 21.315l0.38-1.521c1.556 0.276 2.731 0.173 3.215-1.244 0.415-1.141 0-1.798-0.83-2.212 0.622-0.138 1.072-0.553 1.175-1.348 0.173-1.106-0.692-1.694-1.901-2.074l0.38-1.486-0.899-0.242-0.346 1.452c-0.242-0.069-0.484-0.104-0.726-0.173l0.38-1.452-0.899-0.242-0.38 1.486c-0.207-0.035-0.415-0.104-0.588-0.138l-1.244-0.311-0.242 0.968 0.657 0.173c0.346 0.069 0.415 0.311 0.415 0.518l-0.415 1.694c0.035 0 0.069 0 0.104 0.035-0.035 0-0.069-0.035-0.104-0.035l-0.588 2.385c-0.035 0.104-0.173 0.277-0.415 0.207l-0.657-0.173-0.449 1.037 1.175 0.311c0.242 0.069 0.449 0.104 0.657 0.173l-0.38 1.521 0.899 0.242 0.38-1.486c0.242 0.035 0.484 0.103 0.726 0.173l-0.38 1.486 0.899 0.277zM21.68 13.537c0.519 0.138 2.143 0.38 1.901 1.452-0.242 1.037-1.832 0.519-2.351 0.38l0.449-1.832zM20.504 18.273l0.484-2.005c0.622 0.173 2.593 0.449 2.316 1.625-0.276 1.141-2.177 0.518-2.8 0.38z"></path>
<path fill="#e7e8e3" d="M10.684 9.592h-7.308c-0.288 0-0.522-0.233-0.522-0.522s0.233-0.522 0.522-0.522h7.308c0.288 0 0.522 0.233 0.522 0.522s-0.234 0.522-0.522 0.522z"></path>
<path fill="#e7e8e3" d="M10.684 11.888h-7.308c-0.288 0-0.522-0.233-0.522-0.522s0.233-0.522 0.522-0.522h7.308c0.288 0 0.522 0.233 0.522 0.522s-0.234 0.522-0.522 0.522z"></path>
</svg>
