<!-- Generated by IcoMoon.io -->
<svg version="1.1" xmlns="http://www.w3.org/2000/svg" width="32" height="32" viewBox="0 0 32 32">
<path d="M29.186 11.388l-2.999-1.807 2.999-1.805c0.592-0.357 0.782-1.125 0.426-1.717s-1.124-0.781-1.716-0.426l-4.479 2.697h-15.314c-0.69 0-1.25 0.561-1.25 1.25 0 0.691 0.56 1.25 1.25 1.25h15.314l4.48 2.697c0.592 0.357 1.359 0.166 1.716-0.426s0.166-1.359-0.426-1.715z"></path>
<path d="M9.514 6.831h12.972l2.533-4.76c0.2-0.352 0.27-1.056-0.786-1.525-1.494-0.664-4.343 2.231-8.099 0.704-3.953-1.607-6.807-1.407-8.098-0.821-1.291 0.587-1.057 1.643-1.057 1.643l2.534 4.76z"></path>
<path d="M17.835 23.627c-0.147-0.122-0.337-0.216-0.568-0.28s-0.51-0.097-0.838-0.097h-1.649v2.935h1.657c0.346 0 0.636-0.041 0.869-0.124s0.42-0.194 0.561-0.332c0.141-0.139 0.242-0.3 0.305-0.485 0.061-0.184 0.093-0.38 0.093-0.589 0-0.217-0.034-0.411-0.104-0.584s-0.178-0.321-0.325-0.443z"></path>
<path d="M17.421 21.616c0.328-0.231 0.491-0.599 0.491-1.102 0-0.521-0.147-0.893-0.442-1.114s-0.758-0.332-1.385-0.332h-1.306v2.894h1.202c0.632 0 1.112-0.115 1.439-0.346z"></path>
<path d="M29.128 22.259c-0.869-1.34-4.076-6.549-6.151-9.928h-13.953c-2.074 3.379-5.281 8.588-6.15 9.928-2.817 4.342-2.935 9.741 2.465 9.741h21.325c5.398 0 5.281-5.399 2.465-9.741zM20.097 25.874c-0.162 0.359-0.397 0.67-0.707 0.931-0.309 0.261-0.689 0.466-1.142 0.612-0.452 0.148-0.97 0.222-1.551 0.222h-0.204v1.013h-1.583v-1.013h-2.646v-0.814c0-0.239-0.017-0.384 0.214-0.433 0.021-0.004 0.050-0.009 0.088-0.017 0.037-0.007 0.106-0.020 0.206-0.037s-0.027-0.042 0.146-0.072v-7.267c-0.173-0.030-0.046-0.055-0.146-0.072-0.1-0.019-0.169-0.030-0.206-0.037s-0.067-0.013-0.088-0.016c-0.23-0.050-0.214-0.193-0.214-0.433v-0.814h2.646v-1.081h1.583v1.091c0.482 0.020 0.906 0.079 1.27 0.178 0.464 0.124 0.845 0.302 1.142 0.533 0.299 0.23 0.517 0.51 0.654 0.837 0.139 0.328 0.208 0.697 0.208 1.107 0 0.235-0.034 0.461-0.104 0.676s-0.177 0.415-0.321 0.603c-0.146 0.186-0.331 0.356-0.555 0.509-0.224 0.151-0.203 0.281-0.513 0.387 1.375 0.31 2.064 1.053 2.064 2.23-0 0.424-0.081 0.816-0.242 1.177z"></path>
</svg>
