<!-- Generated by IcoMoon.io -->
<svg version="1.1" xmlns="http://www.w3.org/2000/svg" width="32" height="32" viewBox="0 0 32 32">
<path d="M20 16h-2v-6.36l-7.685-1.537c-0.341-0.068-0.688-0.103-1.035-0.103-2.916 0-5.279 2.364-5.279 5.279v4.721h-4v-4.721c0-5.125 4.154-9.279 9.279-9.279 0.611 0 1.221 0.060 1.82 0.18l6.901 1.38v-5.56h2l8 8-8 8z"></path>
<path d="M32 14v4.721c0 5.125-4.154 9.279-9.279 9.279-0.611 0-1.221-0.060-1.82-0.18l-6.901-1.38v5.56h-2l-8-8 8-8h2v6.36l7.685 1.537c0.341 0.068 0.688 0.103 1.035 0.103 2.916 0 5.279-2.364 5.279-5.279v-4.721h4z"></path>
</svg>
