<!-- Generated by IcoMoon.io -->
<svg version="1.1" xmlns="http://www.w3.org/2000/svg" width="32" height="32" viewBox="0 0 32 32">
<path fill="#f7931a" d="M0 0h32v32h-32v-32z"></path>
<path fill="#fff" d="M24.438 13.5c0.375-2.688-1.563-4-4.25-4.938l0.875-3.438-2.125-0.563-0.813 3.375-1.75-0.438 0.875-3.375-2.188-0.563-0.813 3.5-1.375-0.313-2.938-0.75-0.5 2.25 1.5 0.375c0.875 0.25 1.063 0.875 0.938 1.313l-0.938 3.938-1.375 5.563c-0.125 0.313-0.375 0.688-1 0.5l-1.5-0.375-1.063 2.438 4.25 1.063-0.813 3.563 2.063 0.5 0.875-3.438 1.625 0.375-0.813 3.438 2.125 0.563 0.875-3.5c3.625 0.688 6.375 0.375 7.5-2.875 0.875-2.625-0.063-4.125-2-5.125 1.375-0.313 2.438-1.25 2.75-3.063zM19.625 20.25c-0.688 2.563-5.125 1.25-6.563 0.875l1.188-4.688c1.438 0.375 6.063 1.063 5.375 3.813zM20.188 13.375c-0.563 2.438-4.188 1.25-5.438 0.938l1.063-4.25c1.25 0.313 5.063 0.875 4.375 3.313z"></path>
</svg>
